<?xml version="1.0" encoding="utf-8"?>
<!-- Generator: Adobe Illustrator 16.0.4, SVG Export Plug-In . SVG Version: 6.00 Build 0)  -->
<!DOCTYPE svg PUBLIC "-//W3C//DTD SVG 1.1//EN" "http://www.w3.org/Graphics/SVG/1.1/DTD/svg11.dtd">
<svg version="1.1" id="Layer_1" xmlns="http://www.w3.org/2000/svg" xmlns:xlink="http://www.w3.org/1999/xlink" x="0px" y="0px"
	 width="50px" height="50px" viewBox="371 281 50 50" enable-background="new 371 281 50 50" xml:space="preserve">
<g>
	<path fill="#FFFFFF" d="M386.793,283.785l9.245,13.601l9.187-13.595C399.368,281.351,392.65,281.349,386.793,283.785z"/>
	<path fill="#FFFFFF" d="M405.996,327.872v-14.97l-9.957,14.641l-10.035-14.65v14.979c3.148,1.443,6.51,2.174,9.997,2.174
		C399.486,330.044,402.848,329.312,405.996,327.872z"/>
	<path fill="#FFFFFF" d="M406.109,284.181l-10.071,14.903l-10.133-14.91c-1.729,0.8-3.35,1.797-4.832,2.971l14.964,21.98
		l14.896-21.976C409.454,285.977,407.835,284.981,406.109,284.181z"/>
	<path fill="#FFFFFF" d="M381.073,287.145l14.964,21.98L381.073,287.145z"/>
	<path fill="#FFFFFF" d="M406.109,284.181l-10.071,14.903L406.109,284.181z"/>
	<polygon fill="#FFFFFF" points="385.905,284.174 385.905,284.174 396.038,299.084 	"/>
	<path fill="#FFFFFF" d="M379.33,289.951v33.371c1.706,1.643,3.627,3.015,5.72,4.087v-17.595l10.985,16.037l10.915-16.047v17.604
		c2.095-1.072,4.016-2.444,5.722-4.087v-33.364l-16.632,24.31L379.33,289.951z"/>
	<polygon fill="#FFFFFF" points="396.038,314.268 412.671,289.957 412.671,289.956 	"/>
	<path fill="#FFFFFF" d="M420.046,305.998c0-5.05-1.524-9.826-4.429-13.901v27.801C418.521,315.824,420.046,311.048,420.046,305.998
		z"/>
	<path fill="#FFFFFF" d="M376.381,319.896v-27.798c-2.9,4.075-4.427,8.851-4.427,13.9S373.481,315.824,376.381,319.896z"/>
	<path d="M413.452,288.104l0.034,0.034c-0.002-0.002-0.004-0.004-0.006-0.007L413.452,288.104z M415.618,290.521
		c-0.033-0.044-0.062-0.09-0.099-0.134l-0.006-0.008c-0.271-0.339-0.558-0.67-0.848-0.996c-0.303-0.338-0.612-0.664-0.928-0.984
		c-0.049-0.046-0.092-0.096-0.137-0.142c-0.037-0.036-0.072-0.075-0.106-0.111c-0.001-0.001-0.002-0.002-0.003-0.003
		c-0.002-0.002-0.004-0.003-0.006-0.004l-0.03-0.03c-0.14-0.136-0.274-0.258-0.412-0.386c-0.125-0.118-0.251-0.241-0.374-0.351
		c-0.154-0.139-0.311-0.269-0.463-0.401c-0.111-0.094-0.221-0.193-0.331-0.284c-0.136-0.11-0.278-0.209-0.414-0.317
		c-1.481-1.169-3.099-2.167-4.819-2.977c-0.17-0.081-0.336-0.17-0.509-0.247c-0.123-0.055-0.248-0.101-0.371-0.153
		c-3.1-1.318-6.38-1.993-9.763-1.993c-3.378,0-6.655,0.673-9.752,1.988c-0.118,0.051-0.239,0.096-0.356,0.148l-0.012,0.005
		c-0.174,0.077-0.341,0.167-0.512,0.248c-1.722,0.81-3.342,1.809-4.827,2.979c-0.138,0.108-0.28,0.207-0.415,0.317
		c-0.109,0.091-0.22,0.19-0.33,0.285c-0.155,0.133-0.313,0.264-0.469,0.404c-0.131,0.118-0.265,0.249-0.399,0.374
		c-0.114,0.108-0.228,0.21-0.346,0.323l-0.05,0.049l-0.021,0.021c-0.047,0.045-0.091,0.097-0.137,0.143
		c-0.038,0.038-0.074,0.079-0.112,0.117c-0.316,0.32-0.627,0.646-0.929,0.985c-0.291,0.325-0.576,0.656-0.849,0.996l-0.006,0.009
		l-0.099,0.122v0.012c-3.516,4.45-5.38,9.795-5.38,15.476s1.864,11.024,5.38,15.476c0.035,0.043,0.063,0.09,0.099,0.134l0.006,0.009
		c0.273,0.339,0.558,0.67,0.849,0.995c0.338,0.38,0.685,0.748,1.042,1.103c0.049,0.049,0.094,0.102,0.144,0.149
		c0.26,0.255,0.54,0.485,0.81,0.729c1.727,1.549,3.641,2.854,5.72,3.869c0.093,0.045,0.18,0.098,0.273,0.143
		c0.226,0.105,0.453,0.201,0.681,0.3C389.162,330.289,392.52,331,396,331c3.479,0,6.834-0.709,9.995-2.092
		c0.228-0.1,0.455-0.193,0.68-0.301c0.095-0.043,0.181-0.098,0.273-0.143c2.081-1.016,3.995-2.318,5.722-3.869
		c0.271-0.242,0.551-0.474,0.811-0.729c0.049-0.048,0.095-0.101,0.143-0.149c0.357-0.354,0.704-0.723,1.042-1.102
		c0.29-0.326,0.576-0.657,0.849-0.997l0.006-0.007c0.035-0.045,0.064-0.092,0.098-0.135C419.135,317.025,421,311.68,421,306
		C421.001,300.317,419.136,294.972,415.618,290.521z M376.381,319.896c-2.9-4.073-4.427-8.85-4.427-13.898s1.527-9.825,4.427-13.9
		V319.896z M405.223,283.79l-9.186,13.595l-9.245-13.601C392.65,281.349,399.368,281.351,405.223,283.79z M385.905,284.174
		l10.133,14.91l10.071-14.903c1.725,0.8,3.344,1.796,4.822,2.968l-14.896,21.976l-14.964-21.98
		C382.555,285.971,384.176,284.974,385.905,284.174z M405.996,327.872c-3.148,1.442-6.51,2.173-9.995,2.173
		c-3.487,0-6.849-0.73-9.997-2.174v-14.979l10.035,14.65l9.957-14.641V327.872z M412.671,289.957v33.363
		c-1.706,1.644-3.627,3.017-5.722,4.088v-17.605l-10.914,16.049l-10.985-16.039v17.596c-2.093-1.073-4.014-2.444-5.72-4.088v-33.37
		l16.708,24.315L412.671,289.957L412.671,289.957z M415.618,292.097c2.903,4.075,4.428,8.851,4.428,13.901
		c0,5.049-1.524,9.826-4.428,13.9V292.097z"/>
</g>
</svg>
