<?xml version="1.0" encoding="utf-8"?>
<!-- Generator: Adobe Illustrator 16.0.4, SVG Export Plug-In . SVG Version: 6.00 Build 0)  -->
<!DOCTYPE svg PUBLIC "-//W3C//DTD SVG 1.1//EN" "http://www.w3.org/Graphics/SVG/1.1/DTD/svg11.dtd">
<svg version="1.1" id="Layer_1" xmlns="http://www.w3.org/2000/svg" xmlns:xlink="http://www.w3.org/1999/xlink" x="0px" y="0px"
	 width="99px" height="99px" viewBox="10.299 10.087 99 99" enable-background="new 10.299 10.087 99 99" xml:space="preserve">
<g>
	<path fill="#FFFFFF" d="M41.567,15.604l18.303,26.93l18.19-26.917C66.467,10.787,53.165,10.783,41.567,15.604z"/>
	<path fill="#FFFFFF" d="M79.592,102.9V73.261l-19.715,28.986L40.005,73.24v29.658c6.235,2.855,12.89,4.305,19.794,4.305
		C66.701,107.203,73.356,105.753,79.592,102.9z"/>
	<path fill="#FFFFFF" d="M79.817,16.39L59.873,45.899L39.809,16.376c-3.422,1.583-6.633,3.558-9.567,5.883L59.87,65.781
		l29.498-43.514C86.437,19.946,83.233,17.973,79.817,16.39z"/>
	<path fill="#FFFFFF" d="M30.241,22.26L59.87,65.781L30.241,22.26z"/>
	<path fill="#FFFFFF" d="M79.817,16.39L59.873,45.899L79.817,16.39z"/>
	<polygon fill="#FFFFFF" points="39.809,16.376 39.809,16.376 59.873,45.899 	"/>
	<path fill="#FFFFFF" d="M26.791,27.813V93.89c3.377,3.252,7.181,5.969,11.325,8.092V67.144l21.75,31.758l21.61-31.776v34.856
		c4.148-2.121,7.951-4.84,11.328-8.092V27.828L59.873,75.964L26.791,27.813z"/>
	<polygon fill="#FFFFFF" points="59.873,75.964 92.805,27.828 92.805,27.826 	"/>
	<path fill="#FFFFFF" d="M107.412,59.587c0-9.998-3.022-19.455-8.768-27.522v55.045C104.39,79.044,107.412,69.586,107.412,59.587z"
		/>
	<path fill="#FFFFFF" d="M20.951,87.109V32.068c-5.742,8.065-8.765,17.523-8.765,27.519C12.186,69.585,15.209,79.042,20.951,87.109z
		"/>
	<path d="M94.354,24.158l0.068,0.066c-0.004-0.004-0.009-0.008-0.013-0.013L94.354,24.158z M98.645,28.943
		c-0.068-0.086-0.125-0.179-0.194-0.265l-0.014-0.018c-0.54-0.672-1.106-1.326-1.679-1.972c-0.6-0.669-1.215-1.316-1.838-1.949
		c-0.095-0.092-0.182-0.189-0.271-0.28c-0.072-0.071-0.142-0.149-0.211-0.22c-0.003-0.001-0.003-0.004-0.005-0.006
		c-0.004-0.003-0.007-0.005-0.012-0.009l-0.06-0.057c-0.277-0.27-0.545-0.511-0.816-0.766c-0.246-0.231-0.497-0.475-0.74-0.694
		c-0.31-0.278-0.613-0.532-0.918-0.794c-0.221-0.186-0.436-0.383-0.654-0.564c-0.266-0.218-0.551-0.414-0.819-0.628
		c-2.937-2.313-6.138-4.289-9.542-5.893c-0.337-0.161-0.668-0.338-1.008-0.49c-0.244-0.107-0.491-0.199-0.734-0.303
		c-6.136-2.611-12.631-3.947-19.33-3.947c-6.688,0-13.177,1.333-19.308,3.936c-0.235,0.1-0.472,0.189-0.705,0.292l-0.024,0.011
		c-0.345,0.152-0.675,0.33-1.012,0.491c-3.412,1.604-6.618,3.582-9.558,5.898c-0.272,0.213-0.554,0.409-0.82,0.628
		c-0.216,0.179-0.436,0.377-0.652,0.564c-0.307,0.263-0.619,0.521-0.928,0.8c-0.26,0.234-0.525,0.493-0.791,0.74
		c-0.226,0.214-0.452,0.416-0.684,0.641l-0.102,0.098l-0.041,0.04c-0.095,0.091-0.181,0.191-0.273,0.283
		c-0.075,0.075-0.146,0.157-0.221,0.231c-0.627,0.633-1.243,1.281-1.841,1.951c-0.574,0.646-1.139,1.299-1.68,1.972l-0.013,0.018
		l-0.195,0.242v0.021c-6.962,8.813-10.652,19.396-10.652,30.644c0,11.248,3.69,21.834,10.652,30.645
		c0.069,0.088,0.125,0.18,0.196,0.264l0.012,0.018c0.54,0.674,1.106,1.326,1.68,1.971c0.669,0.752,1.356,1.48,2.062,2.182
		c0.098,0.098,0.187,0.201,0.284,0.297c0.518,0.504,1.07,0.965,1.606,1.447c3.418,3.066,7.208,5.648,11.325,7.66
		c0.184,0.088,0.356,0.193,0.541,0.281c0.447,0.211,0.897,0.396,1.348,0.594c6.256,2.736,12.904,4.143,19.794,4.143
		c6.889,0,13.532-1.404,19.791-4.141c0.45-0.195,0.901-0.383,1.344-0.594c0.188-0.086,0.361-0.193,0.542-0.283
		c4.12-2.01,7.91-4.59,11.329-7.66c0.537-0.48,1.087-0.941,1.604-1.445c0.098-0.096,0.188-0.197,0.287-0.295
		c0.703-0.703,1.393-1.432,2.062-2.182c0.57-0.646,1.139-1.299,1.678-1.975l0.014-0.016c0.07-0.088,0.126-0.178,0.194-0.266
		c6.966-8.811,10.655-19.396,10.655-30.645C109.3,48.34,105.61,37.756,98.645,28.943z M20.951,87.109
		c-5.742-8.066-8.766-17.523-8.766-27.521c0-9.996,3.023-19.454,8.766-27.52V87.109z M78.06,15.617L59.87,42.535l-18.303-26.93
		C53.165,10.783,66.467,10.787,78.06,15.617z M39.809,16.376l20.064,29.522L79.817,16.39c3.415,1.584,6.62,3.557,9.551,5.877
		L59.87,65.781L30.241,22.26C33.177,19.935,36.386,17.959,39.809,16.376z M79.592,102.9c-6.236,2.854-12.891,4.303-19.792,4.303
		c-6.905,0-13.561-1.449-19.794-4.305V73.24l19.872,29.008l19.715-28.986V102.9z M92.805,27.828V93.89
		c-3.377,3.252-7.18,5.971-11.328,8.092V67.125l-21.61,31.776l-21.75-31.758v34.84c-4.145-2.125-7.948-4.842-11.325-8.094V27.813
		l33.082,48.151l32.932-48.138V27.828z M98.645,32.065c5.745,8.067,8.768,17.524,8.768,27.522c0,9.999-3.022,19.457-8.768,27.523
		V32.065z"/>
</g>
</svg>
